<svg width="24" height="24" viewBox="0 0 24 24" fill="none" xmlns="http://www.w3.org/2000/svg">
<path d="M2.14796 11.81C7.39462 9.52398 10.8936 8.01665 12.645 7.28798C17.644 5.20898 18.682 4.84798 19.359 4.83598C19.509 4.83298 19.841 4.86998 20.057 5.04598C20.239 5.19298 20.289 5.39298 20.313 5.53298C20.337 5.67298 20.367 5.99198 20.343 6.24098C20.073 9.08798 18.9 15.995 18.303 19.183C18.051 20.531 17.555 20.983 17.073 21.028C16.028 21.124 15.235 20.338 14.223 19.674C12.638 18.635 11.743 17.988 10.205 16.975C8.42796 15.804 9.57996 15.16 10.593 14.108C10.858 13.833 15.463 9.64398 15.553 9.26398C15.563 9.21598 15.574 9.03898 15.469 8.94598C15.364 8.85198 15.209 8.88398 15.096 8.90998C14.9366 8.94598 12.406 10.6186 7.50396 13.928C6.78462 14.4213 6.13396 14.6616 5.55196 14.649C4.90896 14.635 3.67196 14.286 2.75396 13.987C1.62596 13.62 0.729956 13.427 0.807956 12.804C0.848623 12.48 1.29529 12.1486 2.14796 11.81Z" fill="white"/>
</svg>
