<svg width="16" height="16" viewBox="0 0 16 16" fill="none" xmlns="http://www.w3.org/2000/svg">
<path d="M13.8376 11.3069C13.5626 10.5225 12.9216 10.125 12.3029 9.74063C11.7644 9.40594 11.256 9.08969 10.9235 8.52188C10.0069 6.94906 9.50349 6 8.00193 6C6.50037 6 5.99537 6.94938 5.07662 8.52156C4.74381 9.09063 4.23287 9.4075 3.69381 9.74281C3.07506 10.1275 2.43537 10.5241 2.15943 11.3069C2.05206 11.5892 1.99802 11.8889 2.00006 12.1909C2.00006 13.4641 3.01412 14.5 4.13756 14.5C5.26099 14.5 6.74099 13.9334 8.00506 13.9334C9.26912 13.9334 10.7285 14.5 11.866 14.5C13.0035 14.5 14.0001 13.4641 14.0001 12.1909C14.0009 11.8887 13.9458 11.589 13.8376 11.3069Z" fill="white"/>
<path d="M2.25 9C3.2165 9 4 7.99264 4 6.75C4 5.50736 3.2165 4.5 2.25 4.5C1.2835 4.5 0.5 5.50736 0.5 6.75C0.5 7.99264 1.2835 9 2.25 9Z" fill="white"/>
<path d="M5.75 6C6.7165 6 7.5 4.99264 7.5 3.75C7.5 2.50736 6.7165 1.5 5.75 1.5C4.7835 1.5 4 2.50736 4 3.75C4 4.99264 4.7835 6 5.75 6Z" fill="white"/>
<path d="M10.25 6C11.2165 6 12 4.99264 12 3.75C12 2.50736 11.2165 1.5 10.25 1.5C9.2835 1.5 8.5 2.50736 8.5 3.75C8.5 4.99264 9.2835 6 10.25 6Z" fill="white"/>
<path d="M13.75 9C14.7165 9 15.5 7.99264 15.5 6.75C15.5 5.50736 14.7165 4.5 13.75 4.5C12.7835 4.5 12 5.50736 12 6.75C12 7.99264 12.7835 9 13.75 9Z" fill="white"/>
</svg>
